# xmcd
#
# Track frame offsets:
#	150
#	16225
#	33560
#	52765
#	72407
#	90805
#	109062
#	125000
#	142907
#	162585
#
# Disc length: 2407 seconds
#
# Revision: 0
# Processed by: cddbd v1.5.2PL0 Copyright (c) Steve Scherf et al.
# Submitted via: EZCDAudioConverter 2.2.2.1
#
DISCID=7c09650a
DTITLE=李翊君 - 暗戀
DYEAR=1990
DGENRE=
TTITLE0=暗戀
TTITLE1=張三的歌
TTITLE2=沒有明天沒有你
TTITLE3=揹著寂寞
TTITLE4=明天你是否依然愛我
TTITLE5=孤獨之旅
TTITLE6=擁擠的樂園
TTITLE7=用什麼感覺來寫你
TTITLE8=請不要在別人的肩上哭泣
TTITLE9=機場
EXTD=
EXTT0=
EXTT1=
EXTT2=
EXTT3=
EXTT4=
EXTT5=
EXTT6=
EXTT7=
EXTT8=
EXTT9=
PLAYORDER=
